<mxfile host="app.diagrams.net" agent="Mozilla/5.0 (Windows NT 10.0; Win64; x64) AppleWebKit/537.36 (KHTML, like Gecko) Chrome/130.0.0.0 Safari/537.36" version="24.8.4">
  <diagram name="Page-1" id="cqlMVLWDT55qAFuXqpw4">
    <mxGraphModel grid="1" page="1" gridSize="10" guides="1" tooltips="1" connect="1" arrows="1" fold="1" pageScale="1" pageWidth="850" pageHeight="1100" math="0" shadow="0">
      <root>
        <mxCell id="0" />
        <mxCell id="1" parent="0" />
        <mxCell id="5MLmGvoOcYwqiHZuC0Pk-1" value="" style="rounded=1;whiteSpace=wrap;html=1;" vertex="1" parent="1">
          <mxGeometry x="60" y="50" width="230" height="150" as="geometry" />
        </mxCell>
        <mxCell id="5MLmGvoOcYwqiHZuC0Pk-2" value="" style="endArrow=none;html=1;rounded=0;" edge="1" parent="1">
          <mxGeometry width="50" height="50" relative="1" as="geometry">
            <mxPoint x="60" y="90" as="sourcePoint" />
            <mxPoint x="290" y="90" as="targetPoint" />
            <Array as="points">
              <mxPoint x="195" y="90" />
            </Array>
          </mxGeometry>
        </mxCell>
        <mxCell id="5MLmGvoOcYwqiHZuC0Pk-3" value="LunchOrder" style="text;html=1;align=center;verticalAlign=middle;resizable=0;points=[];autosize=1;strokeColor=none;fillColor=none;" vertex="1" parent="1">
          <mxGeometry x="130" y="56" width="90" height="30" as="geometry" />
        </mxCell>
        <mxCell id="5MLmGvoOcYwqiHZuC0Pk-5" value="&lt;span style=&quot;background-color:#2f2f2f;padding:0px 0px 0px 2px;&quot;&gt;&lt;span style=&quot;color:#cccccc;background-color:#2f2f2f;font-family:&amp;quot;Consolas&amp;quot;;font-size:8pt;white-space:pre;&quot;&gt;&lt;span style=&quot;color:#d9e8f7;&quot;&gt; &lt;/span&gt;&lt;span style=&quot;color:#cc6c1d;&quot;&gt;public&lt;/span&gt;&lt;span style=&quot;color:#d9e8f7;&quot;&gt; &lt;/span&gt;&lt;span style=&quot;color:#1eb540;&quot;&gt;Food&lt;/span&gt;&lt;/span&gt;&lt;/span&gt;" style="text;whiteSpace=wrap;html=1;" vertex="1" parent="1">
          <mxGeometry x="60" y="90" width="110" height="20" as="geometry" />
        </mxCell>
        <mxCell id="5MLmGvoOcYwqiHZuC0Pk-6" value="&lt;span style=&quot;background-color:#2f2f2f;padding:0px 0px 0px 2px;&quot;&gt;&lt;span style=&quot;color:#cccccc;background-color:#2f2f2f;font-family:&amp;quot;Consolas&amp;quot;;font-size:8pt;white-space:pre;&quot;&gt;&lt;span style=&quot;color:#d9e8f7;&quot;&gt;&lt;/span&gt;&lt;span style=&quot;color:#cc6c1d;&quot;&gt;public&lt;/span&gt;&lt;span style=&quot;color:#d9e8f7;&quot;&gt; &lt;/span&gt;&lt;span style=&quot;color:#cc6c1d;&quot;&gt;double&lt;/span&gt;&lt;span style=&quot;color:#d9e8f7;&quot;&gt; &lt;/span&gt;&lt;/span&gt;&lt;/span&gt;" style="text;whiteSpace=wrap;html=1;" vertex="1" parent="1">
          <mxGeometry x="60" y="110" width="80" height="30" as="geometry" />
        </mxCell>
        <mxCell id="5MLmGvoOcYwqiHZuC0Pk-7" value="&lt;span style=&quot;background-color:#2f2f2f;padding:0px 0px 0px 2px;&quot;&gt;&lt;span style=&quot;color:#cccccc;background-color:#2f2f2f;font-family:&amp;quot;Consolas&amp;quot;;font-size:8pt;white-space:pre;&quot;&gt;&lt;span style=&quot;color:#d9e8f7;&quot;&gt;  &lt;/span&gt;&lt;span style=&quot;color:#cc6c1d;&quot;&gt;double&lt;/span&gt;&lt;span style=&quot;color:#d9e8f7;&quot;&gt; &lt;/span&gt;&lt;span style=&quot;color:#f2f200;&quot;&gt;total&lt;/span&gt;&lt;span style=&quot;color:#d9e8f7;&quot;&gt; &lt;/span&gt;&lt;/span&gt;&lt;/span&gt;" style="text;whiteSpace=wrap;html=1;" vertex="1" parent="1">
          <mxGeometry x="60" y="130" width="90" height="20" as="geometry" />
        </mxCell>
        <mxCell id="5MLmGvoOcYwqiHZuC0Pk-8" value="" style="endArrow=classic;html=1;rounded=0;" edge="1" parent="1">
          <mxGeometry width="50" height="50" relative="1" as="geometry">
            <mxPoint x="290" y="140" as="sourcePoint" />
            <mxPoint x="550" y="140" as="targetPoint" />
          </mxGeometry>
        </mxCell>
        <mxCell id="5MLmGvoOcYwqiHZuC0Pk-10" style="edgeStyle=orthogonalEdgeStyle;rounded=0;orthogonalLoop=1;jettySize=auto;html=1;" edge="1" parent="1" source="5MLmGvoOcYwqiHZuC0Pk-9">
          <mxGeometry relative="1" as="geometry">
            <mxPoint x="645" y="440" as="targetPoint" />
          </mxGeometry>
        </mxCell>
        <mxCell id="5MLmGvoOcYwqiHZuC0Pk-9" value="&lt;div style=&quot;background-color:#2f2f2f;padding:0px 0px 0px 2px;&quot;&gt;&lt;div style=&quot;color:#cccccc;background-color:#2f2f2f;font-family:&amp;quot;Consolas&amp;quot;;font-size:8pt;white-space:pre;&quot;&gt;&lt;p style=&quot;margin:0;&quot;&gt;&lt;span style=&quot;color:#808080;&quot;&gt;/* screen dump&lt;/span&gt;&lt;/p&gt;&lt;p style=&quot;margin:0;&quot;&gt;&lt;span style=&quot;color:#808080;&quot;&gt;Enter the number of hamburgers: 2&lt;/span&gt;&lt;/p&gt;&lt;p style=&quot;margin:0;&quot;&gt;&lt;span style=&quot;color:#808080;&quot;&gt;Enter the number of salads: 34&lt;/span&gt;&lt;/p&gt;&lt;p style=&quot;margin:0;&quot;&gt;&lt;span style=&quot;color:#808080;&quot;&gt;Enter the number of french fries: 6&lt;/span&gt;&lt;/p&gt;&lt;p style=&quot;margin:0;&quot;&gt;&lt;span style=&quot;color:#808080;&quot;&gt;Enter the number of sodas: 3&lt;/span&gt;&lt;/p&gt;&lt;p style=&quot;margin:0;&quot;&gt;&lt;span style=&quot;color:#808080;&quot;&gt;Total cost of the order: $82.35&lt;/span&gt;&lt;/p&gt;&lt;p style=&quot;margin:0;&quot;&gt;&lt;span style=&quot;color:#808080;&quot;&gt;*/&lt;/span&gt;&lt;/p&gt;&lt;/div&gt;&lt;/div&gt;" style="whiteSpace=wrap;html=1;aspect=fixed;" vertex="1" parent="1">
          <mxGeometry x="550" y="70" width="190" height="190" as="geometry" />
        </mxCell>
        <mxCell id="5MLmGvoOcYwqiHZuC0Pk-11" value="Repeat" style="rounded=0;whiteSpace=wrap;html=1;" vertex="1" parent="1">
          <mxGeometry x="590" y="440" width="120" height="60" as="geometry" />
        </mxCell>
      </root>
    </mxGraphModel>
  </diagram>
</mxfile>
